<svg version="1.2" xmlns="http://www.w3.org/2000/svg" viewBox="0 0 1080 1080" width="1080" height="1080">
	<title>template</title>
	<style>
		.s0 { fill: #0b19f7 } 
		.s1 { fill: #b5b9fd } 
	</style>
	<path id="Background" class="s0" d="m0 0h1080v1080h-1080z"/>
	<g id="skull">
		<path class="s1" d="m299 332c4.7 11.5 4.7 23.1 4.7 32.4l50.9 30.1c30.2-76.4 104.3-127.4 187.7-127.4 85.8 0 157.6 51 187.7 122.8l46.3-25.5c0-11.6 2.4-20.9 4.7-32.4 11.6-41.8 41.7-71.9 67.2-64.9 23.1 4.6 34.7 46.3 23.1 88 0 2.3-2.3 2.3-2.3 4.7 2.3 0 2.3 0 4.7 0 41.7 11.5 71.8 41.7 64.8 64.8-6.9 25.5-46.3 34.8-90.3 23.2-11.6-2.3-20.9-6.9-30.2-11.6l-71.8 41.7c-2.3 41.7-16.2 78.8-39.4 108.9l81.1 46.4c9.3-4.7 18.6-9.3 30.1-11.6 44.1-11.6 83.5 0 90.4 23.1 7 25.5-23.2 53.3-67.2 64.9 0 2.3-2.3 2.3-2.3 2.3v2.4c11.6 44 2.3 83.4-23.2 90.3-23.1 7-53.3-23.1-64.8-67.2-2.4-11.6-4.7-20.8-4.7-32.4l-55.6-32.4c-2.3 81-67.2 143.6-148.3 143.6-81.1 0-145.9-64.9-148.3-143.6l-57.9 34.7c-2.3 9.3-2.3 18.5-4.6 30.1-11.6 44.1-41.7 74.2-67.2 67.2-23.2-6.9-34.8-48.6-23.2-90.3 0-2.4 0-2.4 2.3-2.4-2.3-2.3-2.3-2.3-4.6-2.3-41.7-11.6-71.8-39.4-64.9-64.9 7-25.4 46.4-34.7 90.4-23.1 9.3 2.3 20.8 6.9 30.1 11.6l83.4-48.7c-20.8-27.8-34.7-64.9-37.1-101.9l-78.7-46.4c-9.3 4.7-18.6 9.3-30.2 11.6-41.7 11.6-83.4 2.3-90.3-23.2-4.6-23.1 23.2-53.3 67.2-64.8h2.3c0-2.4 0-2.4 0-4.7-11.6-41.7-2.3-83.4 23.2-90.3 25.5-4.7 53.3 23.1 64.8 67.2zm155.3 67.1c-41.7 0-74.2 32.5-74.2 71.9 0 41.7 32.5 74.1 74.2 74.1 39.4 0 71.8-32.4 71.8-74.1 0-39.4-32.4-71.9-71.8-71.9zm178.4 0c-41.7 0-74.2 32.5-74.2 71.9 0 41.7 32.5 74.1 74.2 74.1 39.4 0 71.8-32.4 71.8-74.1 0-39.4-32.4-71.9-71.8-71.9zm-132.1 206.3h81.1l-41.7-58z"/>
	</g>
</svg>